<svg width="60" height="59" viewBox="0 0 60 59" fill="none" xmlns="http://www.w3.org/2000/svg">
<path d="M49.7397 59H10.2603C4.59394 59 0 54.4826 0 48.9107V10.0893C0 4.51739 4.59394 0 10.2603 0H49.7397C55.4061 0 60 4.51739 60 10.0893V48.9107C60 54.4826 55.4061 59 49.7397 59Z" fill="#E3F0FF"/>
<path d="M52 14.5235V43.4765C52 45.4592 51.233 47.2605 49.9791 48.6051C48.6058 50.0787 46.6486 51 44.4765 51H15.5235C13.2909 51 11.2844 50.0277 9.90633 48.481C8.72084 47.1523 8 45.3988 8 43.4765V14.5235C8 10.3687 11.3687 7 15.5235 7H44.4765C48.6313 7 52 10.3687 52 14.5235Z" fill="#D2E4FF"/>
<path d="M23.9712 29C23.9712 29 19.7778 21.2782 23.6235 17.8687C27.4693 14.4592 34.2398 16.4952 35.4863 17.8687C36.7327 19.2438 38.3904 23.1547 34.9512 28.7147L23.9712 29Z" fill="#2C3A64"/>
<path d="M25.5382 32.4093C25.5382 32.4093 25.3866 37.0301 24.7817 39.0999L20 42.3647L38 45L33.7067 39.1952C33.7067 39.1952 32.4107 33.0013 33.0906 30.7097C33.7705 28.4181 25.5382 32.4093 25.5382 32.4093Z" fill="#B56F40"/>
<path d="M26 33C26 32.9986 27.3474 36.0674 29.8852 35.9989C32.4214 35.9317 33 33.2172 33 33.2172L26 33Z" fill="#99592E"/>
<path d="M29.4992 34.9996C27.5633 34.9644 24 32.3673 24 29.1519V24.134C24 22.9597 24.8129 22 25.8055 22H33.1929C34.1871 22 35 22.9597 35 24.134V28.8683C35 32.2408 31.7199 35.0381 29.4992 34.9996Z" fill="#B56F40"/>
<path d="M50 48.6664C48.6292 50.1022 46.6755 51 44.5074 51H15.607C13.3785 51 11.3755 50.0526 10 48.5454C16.1947 40.5103 20.1211 40.0048 20.2228 39.9939C20.955 39.7722 22.7356 39.2667 25.4009 39C25.4009 39.0667 27.4753 42.0361 29.923 42.3648C31.443 41.7787 32.5819 41.2049 34.2449 39.0481C36.1287 39.2621 38.2206 39.6869 40.3888 40.2203L40.3872 40.2095C40.3872 40.2095 44.0579 41.1088 50 48.6664Z" fill="#74ACBE"/>
<path d="M24.0117 26C24.0117 26 25.4212 22.1072 30.0457 22.7155C34.6685 23.3223 35.0694 24.2143 35.5604 25.2513C36.0514 26.2868 37 21.4657 37 21.4657L31.5472 20C31.5472 20 24.9469 20.6792 24.4743 21.6785C24 22.6792 24 22.6792 24 22.6792L24.0117 26Z" fill="#2C3A64"/>
<path d="M29 18C29 18 24.574 13.9525 26.4739 13.0879C28.3723 12.2249 29 18 29 18Z" fill="#2C3A64"/>
<path d="M30 18C30 18 23.6227 15.8269 25.2727 14.2835C26.9243 12.7402 30 18 30 18Z" fill="#2C3A64"/>
<path d="M29.1694 18C29.1694 18 28.3433 12.9635 30.3396 13.0002C32.336 13.0369 29.1694 18 29.1694 18Z" fill="#2C3A64"/>
<path d="M30 18C30 18 32.3621 12.5213 34.5603 13.0338C36.7585 13.5464 30 18 30 18Z" fill="#2C3A64"/>
<path d="M30 18C30 18 34.3415 13.0104 36.6259 14.1767C38.9085 15.3446 30 18 30 18Z" fill="#2C3A64"/>
</svg>
