<svg width="60" height="58" viewBox="0 0 60 58" fill="none" xmlns="http://www.w3.org/2000/svg">
<path d="M49.7415 58H10.2593C4.59323 58 0 53.5603 0 48.082V9.91801C0 4.44137 4.59323 -3.8147e-06 10.2593 -3.8147e-06H49.7415C55.4071 -3.8147e-06 60 4.44137 60 9.91801V48.082C60 53.5603 55.4071 58 49.7415 58Z" fill="#E3F0FF"/>
<path d="M53 13.3526V41.6474C53 42.2872 52.9133 42.9088 52.7537 43.5005C52.1275 45.7994 50.3686 47.6608 48.0791 48.5061C47.9917 48.5392 47.9039 48.5691 47.8161 48.5972C47.0277 48.8591 46.1842 49 45.3044 49H15.694C15.3043 49 14.9197 48.9718 14.5454 48.9171C12.1478 48.574 10.1122 47.1751 8.97451 45.2292C8.35369 44.1701 8 42.9485 8 41.6474V13.3526C8 9.29177 11.4448 6 15.694 6H45.3044C49.5551 6 53 9.29177 53 13.3526Z" fill="#D2E4FF"/>
<path d="M27.6155 24.0884C27.6155 24.0884 27.4884 28.0926 26.9849 29.8862L23 32.7153L38 35L34.4226 29.9689C34.4226 29.9689 33.3429 24.6001 33.9092 22.6153C34.4756 20.6287 27.6155 24.0884 27.6155 24.0884Z" fill="#FFB27D"/>
<path d="M27 25C27 24.9982 28.1547 28.0662 30.3297 27.9989C32.505 27.9298 33 25.2181 33 25.2181L27 25Z" fill="#ED985F"/>
<path d="M26.514 23C26.514 23 25.7848 19.5135 25.2761 18.4584C24.7675 17.4017 24.3435 12.6914 29.982 12.4473C29.982 12.4473 32.144 12.6914 33.3311 12C33.3311 12 33.3311 12.6914 33.0345 12.9339C33.0345 12.9339 34.9843 12.4882 36.5107 14.1118C38.037 15.7371 35.4936 21.4223 35.6207 22.7624L26.514 23Z" fill="#2C3A64"/>
<path d="M35 17.8062V21.8121C35 22.4814 34.8523 23.1249 34.603 23.7167H34.6013C34.1697 24.738 33.4355 25.6057 32.6324 26.1905C31.9196 26.7133 31.1539 27.0117 30.5001 26.9996C29.9308 26.9876 29.1907 26.6977 28.4737 26.2026C27.5086 25.5367 26.5895 24.5016 26.1978 23.2836L26.192 23.2647L26.1776 23.2146C26.0646 22.8403 26 22.4521 26 22.0519V17.8062C26 16.8126 26.6655 16 27.4785 16H33.5215C34.3346 16 35 16.8126 35 17.8062Z" fill="#FFB27D"/>
<path d="M39.6532 31.0269C39.6532 31.0269 36.108 30.2665 34.5203 30.0815C33.1186 31.9367 32.1129 32.434 30.8329 32.9398C28.7705 32.6564 27.0341 30.0577 27.0341 30C24.7913 30.2291 23.2773 30.7061 22.6604 30.8979C22.6604 30.8979 22.659 30.8979 22.6579 30.8979C22.5141 30.9166 17.0234 31.677 9 46.1402C10.1175 48.1312 12.1168 49.5655 14.4717 49.9151C15.5056 49.0257 17.7264 47.1043 19.4673 45.5971C19.4482 46.0842 19.4441 46.5238 19.4552 46.9074C19.485 47.9428 19.5179 48.9714 19.5412 50H41.4312C41.3888 49.4772 41.3547 48.9731 41.33 48.4927C41.2549 46.994 41.1852 45.6242 41.1208 44.375C41.1194 44.3648 41.1194 44.3529 41.118 44.3427C41.1174 44.3291 41.1167 44.3172 41.116 44.3037C41.1177 44.3054 41.1191 44.3054 41.1208 44.3071C41.438 44.5803 41.8156 44.9079 42.2272 45.2644C42.3091 45.334 42.3926 45.4069 42.4775 45.4799C42.5497 45.5427 42.6238 45.6072 42.6988 45.6717C42.8015 45.76 42.9054 45.85 43.0095 45.9416C43.1966 46.1029 43.3866 46.2658 43.5783 46.4322C43.6657 46.5085 43.7548 46.5849 43.8422 46.6613C43.8887 46.702 43.9352 46.7428 43.9829 46.7835C44.0364 46.8293 44.0909 46.8752 44.1444 46.9227C44.1839 46.9566 44.225 46.9906 44.2649 47.0262C44.3592 47.1077 44.4521 47.1892 44.545 47.269C44.6218 47.3369 44.6969 47.4014 44.7734 47.4676C44.8363 47.5219 44.9005 47.5762 44.9636 47.6305C45.1932 47.8308 45.419 48.026 45.6377 48.2144C45.7251 48.2891 45.8113 48.3654 45.8975 48.4384C45.9863 48.5165 46.0754 48.5929 46.1615 48.6659C46.2216 48.7185 46.2819 48.7711 46.3421 48.822C46.3693 48.8458 46.3954 48.8679 46.4214 48.8899C46.5129 48.9697 46.6005 49.0478 46.6867 49.1191C46.7755 49.1972 46.8617 49.2718 46.9437 49.3431C46.9781 49.3737 47.0121 49.4008 47.0448 49.4297C47.0805 49.4619 47.1161 49.4908 47.1503 49.5197C47.2365 49.4908 47.3227 49.4602 47.4086 49.4263C49.6574 48.5606 51.3849 46.6545 52 44.3003C44.485 31.4122 39.6532 31.0269 39.6532 31.0269Z" fill="#F99746"/>
<path d="M26.1998 20C26.1998 20 26.2082 17.4677 28.1315 17.077C30.0549 16.6881 34.3595 18.3124 34.9701 16.4654C35.5806 14.6167 26.6495 14.6493 26.1998 15.828C25.7502 17.0068 26.1998 20 26.1998 20Z" fill="#2C3A64"/>
<path d="M33 24.6419V26.2585C32.3145 26.7373 31.5779 27.0107 30.9491 26.9997C30.4015 26.9886 29.6897 26.7231 29 26.2696V24.6419C29 23.7396 29.7448 23 30.6552 23H31.3447C32.2552 23 33 23.7396 33 24.6419Z" fill="#2C3A64"/>
<path d="M35 23.5305C34.1314 25.5668 32.1044 27.0252 30.6182 26.9997C29.1902 26.9723 26.7495 25.3152 26.0216 23.0729L26.0154 23.0529L26 23C26 23 27.5338 24.3472 28.5482 23.68H32.8091C32.8091 23.68 33.9246 24.3363 35 23.5305Z" fill="#2C3A64"/>
<path d="M31.422 24H30.4871C30.2726 24 30 23.5496 30 23.2748C30 23.2748 30.2726 23 30.4871 23H31.422C31.6364 23 31.9496 23.2286 32 23.3926C32 23.3926 31.8702 24 31.422 24Z" fill="#FFB27D"/>
</svg>
