<svg width="60" height="58" viewBox="0 0 60 58" fill="none" xmlns="http://www.w3.org/2000/svg">
<path d="M49.74 58H10.26C4.59452 58 0 53.5603 0 48.082V9.91803C0 4.43973 4.59452 0 10.26 0H49.74C55.4072 0 60 4.43973 60 9.91803V48.082C60 53.5603 55.4072 58 49.74 58Z" fill="#E3F0FF"/>
<path d="M53 13.3529V41.6471C53 43.4572 52.3166 45.1131 51.1821 46.3943C49.7718 47.9872 47.6625 49 45.3069 49H15.6949C13.7503 49 11.9758 48.3121 10.6228 47.175C9.01475 45.8275 8 43.8517 8 41.6471V13.3529C8 9.29187 11.445 6 15.6949 6H45.3069C49.5567 6 53 9.29187 53 13.3529Z" fill="#D2E4FF"/>
<path d="M27.1556 32.9833C27.1556 32.9833 22.319 32.7516 22.1836 30.0924C22.0481 27.4332 18.052 25.4938 19.2104 23.3591C20.6292 20.7413 19.3337 18.2227 21.1259 16.4637C23.0988 14.5226 25.5926 15.5767 26.909 14.4465C28.2236 13.3163 30.6289 12.2754 33.0012 13.6704C35.3735 15.067 37.1848 14.3158 38.7443 15.6611C40.4671 17.1454 39.8141 19.0153 41.2347 20.0314C42.5372 20.9614 42.0075 23.5047 40.9099 25.5716C40.1197 27.0609 41.9415 28.4575 38.812 30.1685C37.5113 30.8817 37.7926 32.6739 33.84 32.9833C32.0582 33.1223 28.1941 32.328 27.1556 32.9833Z" fill="#2C3A64"/>
<path d="M26.9228 30.2493C26.9228 30.2493 26.7875 34.5612 26.2511 36.493L22 39.5393L38 42L34.1851 36.5823C34.1851 36.5823 33.0321 30.8005 33.637 28.6627C34.2419 26.523 26.9228 30.2493 26.9228 30.2493Z" fill="#B56F40"/>
<path d="M27 31C27 30.9983 28.3484 34.0662 30.8851 33.9989C33.4218 33.9316 34 31.2171 34 31.2171L27 31Z" fill="#99592E"/>
<path d="M29.9992 32.9996C28.2397 32.9709 25 30.7726 25 28.0522V23.8072C25 22.8142 25.7392 22 26.642 22H33.358C34.2608 22 35 22.8142 35 23.8072V27.8127C35 30.6656 32.0193 33.0332 29.9992 32.9996Z" fill="#B56F40"/>
<path d="M39.6502 38.1406H39.6485C37.6657 37.661 35.8011 37.2786 34.0801 37.0857C32.5575 39.0307 31.4678 39.5499 30.077 40.079C27.8411 39.7806 25.9576 37.061 25.9576 37C23.5215 37.239 21.8809 37.7351 21.2103 37.9362C21.2103 37.9362 21.2086 37.9362 21.2035 37.9379C21.0085 37.9626 16.653 38.612 10 48.1869C11.3344 49.316 13.0844 50 15.0021 50H18.0096H20.4388H41.1282C41.1265 49.9786 41.1265 49.9571 41.1248 49.9341H44.2058C46.529 49.9341 48.6092 48.927 50 47.343C45.3246 39.6092 39.6502 38.1406 39.6502 38.1406Z" fill="#B64C41"/>
<path d="M25.01 25C25.01 25 26.2034 21.1084 30.1147 21.7147C34.0277 22.3227 34.3656 23.2151 34.7817 24.2498C35.1978 25.2862 36 20.4649 36 20.4649L31.3863 19C31.3863 19 25.8022 19.6791 25.4011 20.6782C25 21.6791 25 21.6791 25 21.6791L25.01 25Z" fill="#2C3A64"/>
<path d="M35.8281 26.4737C35.6984 27.1541 35.2153 27.5883 34.3928 27.765C33.7658 27.9023 33.1689 27.8271 33.1636 27.8252H33.1547C32.5436 27.8252 32.1102 27.4493 31.7923 26.641C31.7478 26.5338 31.659 26.2801 31.6377 26.0131C31.6377 26.0113 31.6377 26.0113 31.6377 26.0113C31.6803 26.0282 31.7212 26.0489 31.7638 26.0733C31.8065 26.0959 31.8598 26.079 31.8811 26.0338C31.9042 25.9887 31.8882 25.9342 31.8455 25.9098C31.7763 25.8703 31.707 25.8421 31.6377 25.8158C31.6377 25.8139 31.6377 25.8139 31.6377 25.8139C31.6466 25.688 31.6768 25.5677 31.7407 25.4662C31.8704 25.2575 32.1244 25.1541 32.4939 25.1541H34.709C35.1016 25.1541 35.4462 25.3064 35.6505 25.5714C35.8334 25.8064 35.8956 26.1203 35.8281 26.4737ZM30.3623 26.0282C30.3374 26.2895 30.2486 26.5357 30.2095 26.641C29.8898 27.4493 29.4564 27.8252 28.8453 27.8252H28.8364C28.8293 27.8271 28.2342 27.9023 27.6072 27.765C26.7847 27.5883 26.3016 27.1541 26.1719 26.4737C26.1062 26.1203 26.1648 25.8064 26.3495 25.5714C26.5538 25.3064 26.8984 25.1541 27.291 25.1541H29.5079C29.8774 25.1541 30.1296 25.2575 30.261 25.4662C30.3268 25.5714 30.357 25.6992 30.3641 25.8289V25.8308C30.2522 25.8684 30.1793 25.9023 30.1704 25.9079C30.126 25.9286 30.1065 25.9831 30.126 26.0301C30.142 26.0639 30.174 26.0827 30.206 26.0827C30.2184 26.0827 30.2309 26.0808 30.2433 26.0752C30.2451 26.0733 30.2895 26.0526 30.3623 26.0263V26.0282ZM35.7641 25.4737C35.5297 25.1711 35.146 25 34.709 25H32.4939C32.0711 25 31.778 25.1259 31.6182 25.3797C31.5436 25.4962 31.5063 25.6297 31.4938 25.7688C31.1226 25.671 30.7602 25.7218 30.508 25.7876V25.7857C30.4973 25.6429 30.4582 25.5019 30.3818 25.3797C30.2237 25.1259 29.9289 25 29.5079 25H27.291C26.854 25 26.4686 25.1711 26.2359 25.4737C26.0245 25.7462 25.9534 26.1034 26.0298 26.5038C26.282 27.8308 27.7244 28 28.4456 28C28.6677 28 28.8204 27.9831 28.8489 27.9793C29.5239 27.9775 29.9981 27.5714 30.3428 26.6992C30.4014 26.5489 30.4973 26.2707 30.5115 25.9793C30.7513 25.9116 31.119 25.8496 31.4885 25.9586C31.4992 26.2575 31.5969 26.547 31.6555 26.6992C32.0019 27.5714 32.4761 27.9775 33.1512 27.9793C33.1796 27.9831 33.3323 28 33.5544 28C34.2756 28 35.718 27.8308 35.9702 26.5056C36.0466 26.1034 35.9755 25.7462 35.7641 25.4737Z" fill="#2C3A64"/>
</svg>
